<mxfile host="app.diagrams.net" modified="2024-02-26T04:25:35.411Z" agent="Mozilla/5.0 (Windows NT 10.0; Win64; x64) AppleWebKit/537.36 (KHTML, like Gecko) Chrome/121.0.0.0 Safari/537.36 Edg/121.0.0.0" version="23.1.6" etag="8KL9WIyDX0XAT9rR1vKU" type="github">
  <diagram name="Page-1" id="RXKnIdHU6bYP21YVWFHE">
    <mxGraphModel>
      <root>
        <mxCell id="0" />
        <mxCell id="1" parent="0" />
      </root>
    </mxGraphModel>
  </diagram>
</mxfile>
